<?xml version="1.0" standalone="no"?>
<!DOCTYPE svg PUBLIC "-//W3C//DTD SVG 20010904//EN"
 "http://www.w3.org/TR/2001/REC-SVG-20010904/DTD/svg10.dtd">
<svg version="1.0" xmlns="http://www.w3.org/2000/svg"
 width="625.000000pt" height="399.000000pt" viewBox="0 0 625.000000 399.000000"
 preserveAspectRatio="xMidYMid meet">

<g transform="translate(0.000000,399.000000) scale(0.100000,-0.100000)"
fill="#000000" stroke="none">
<path d="M2721 3246 l-423 -424 5 -38 c3 -22 7 -50 9 -63 3 -22 -34 -48 -366
-262 -204 -131 -376 -249 -383 -261 -18 -34 -18 -1173 1 -1206 13 -25 107 -81
707 -426 273 -157 385 -216 408 -216 24 0 146 67 469 257 424 250 568 338 605
370 14 14 17 35 17 147 0 136 6 161 32 151 9 -4 29 0 45 9 41 21 830 816 842
847 7 20 1 61 -29 180 -21 85 -84 343 -140 574 -57 231 -107 430 -113 442 -13
30 -33 36 -482 153 -214 56 -464 122 -555 146 -90 24 -178 44 -195 44 -27 0
-81 -50 -454 -424z m834 154 c414 -108 579 -152 644 -169 l65 -18 83 -339 c45
-186 98 -401 116 -476 19 -76 30 -138 25 -138 -19 0 -933 232 -940 238 -5 6
-258 953 -258 968 0 3 8 3 18 0 9 -3 121 -33 247 -66z m-328 -172 c76 -259
203 -740 203 -766 0 -10 -11 -29 -24 -41 l-25 -23 -341 208 c-188 114 -352
209 -364 211 -13 3 -50 -12 -92 -36 -76 -44 -90 -48 -97 -28 -4 10 659 687
673 687 3 0 33 -96 67 -212z m-123 -798 c229 -138 418 -255 420 -259 3 -4
-189 -123 -426 -265 -338 -203 -434 -257 -447 -249 -9 5 -204 119 -435 253
-379 221 -416 245 -400 258 11 7 118 77 239 155 302 194 597 368 617 363 9 -2
203 -117 432 -256z m667 -110 c329 -84 680 -178 687 -185 3 -3 -145 -157 -329
-341 l-336 -336 -36 7 -37 7 0 348 c0 192 -3 355 -6 364 -3 9 -55 46 -115 82
-60 36 -109 68 -109 71 0 7 31 43 37 43 3 0 112 -27 244 -60z m-173 -757 l-3
-486 -420 -248 c-231 -137 -423 -248 -427 -249 -5 0 -8 219 -8 488 l0 487 203
120 c318 188 641 375 650 375 4 0 6 -219 5 -487z m-1677 376 c101 -55 300
-168 442 -251 l257 -150 0 -484 c0 -459 -1 -484 -17 -475 -10 6 -209 120 -443
253 l-425 244 -3 482 c-1 265 0 482 2 482 2 0 86 -45 187 -101z"/>
<path d="M3849 2941 c-87 -88 52 -248 158 -182 63 39 49 137 -27 189 -47 32
-94 29 -131 -7z"/>
<path d="M2995 3051 c-47 -28 -66 -56 -72 -101 -13 -92 61 -137 147 -89 63 36
91 112 60 168 -22 42 -86 52 -135 22z"/>
<path d="M2623 2265 c-31 -13 -63 -59 -63 -90 0 -92 151 -136 222 -65 88 89
-35 209 -159 155z"/>
<path d="M3925 2051 c-49 -30 -68 -58 -72 -108 -4 -39 -1 -52 16 -70 43 -45
98 -42 156 8 106 93 18 243 -100 170z"/>
<path d="M3315 1746 c-54 -54 -51 -152 6 -200 77 -65 169 7 156 121 -10 89
-105 136 -162 79z"/>
<path d="M3101 1425 c-27 -31 -31 -43 -31 -91 0 -50 3 -59 34 -90 44 -44 83
-45 128 -5 27 24 32 36 36 89 4 60 3 63 -31 97 -49 49 -93 49 -136 0z"/>
<path d="M2901 1109 c-87 -81 -27 -247 80 -224 16 4 40 20 54 37 43 51 29 169
-24 198 -33 17 -85 12 -110 -11z"/>
<path d="M1927 1719 c-28 -16 -47 -64 -47 -120 0 -45 4 -55 34 -85 73 -73 166
-17 166 100 0 63 -45 116 -99 116 -20 0 -44 -5 -54 -11z"/>
<path d="M2277 1509 c-37 -29 -53 -88 -38 -138 12 -43 61 -91 92 -91 77 0 135
110 98 183 -36 69 -99 88 -152 46z"/>
<path d="M1914 1306 c-30 -30 -34 -40 -34 -88 0 -80 37 -127 101 -128 99 -1
136 164 51 230 -38 31 -78 26 -118 -14z"/>
<path d="M2275 1087 c-59 -59 -55 -153 7 -200 51 -38 111 -19 144 45 41 79
-15 188 -97 188 -11 0 -36 -15 -54 -33z"/>
</g>
</svg>
